<?xml version="1.0" standalone="no"?>
<!DOCTYPE svg PUBLIC "-//W3C//DTD SVG 20010904//EN"
 "http://www.w3.org/TR/2001/REC-SVG-20010904/DTD/svg10.dtd">
<svg version="1.0" xmlns="http://www.w3.org/2000/svg"
 width="420.000000pt" height="189.000000pt" viewBox="0 0 420.000000 189.000000"
 preserveAspectRatio="xMidYMid meet">

<g transform="translate(0.000000,189.000000) scale(0.100000,-0.100000)"
fill="#000000" stroke="none">
<path d="M2830 1565 c-122 -34 -181 -102 -204 -232 l-5 -33 99 0 100 0 13 33
c28 66 95 94 182 78 77 -14 114 -67 84 -122 -13 -26 -45 -37 -149 -55 -134
-23 -182 -35 -232 -60 -82 -41 -118 -110 -118 -223 0 -78 23 -135 69 -174 89
-75 291 -75 400 -1 l36 24 5 -27 5 -28 108 -3 107 -3 0 293 c0 317 -6 366 -54
438 -18 27 -45 48 -92 71 -62 31 -75 33 -183 36 -81 2 -132 -2 -171 -12z m282
-482 c-4 -83 -9 -99 -44 -138 -38 -44 -70 -61 -128 -69 -92 -13 -153 54 -120
134 16 40 64 64 176 90 67 16 119 33 119 40 0 0 -1 -26 -3 -57z"/>
<path d="M1464 1543 c3 -10 55 -195 117 -410 l112 -393 108 0 c71 0 109 4 109
11 0 6 -33 128 -74 272 -41 144 -91 324 -112 400 l-37 137 -114 0 c-104 0
-114 -2 -109 -17z"/>
<path d="M1947 1508 c35 -119 96 -326 159 -540 l67 -228 109 0 c59 0 108 3
108 8 0 7 -51 183 -173 592 l-64 215 -111 3 -111 3 16 -53z"/>
<path d="M3430 1262 c0 -333 4 -358 66 -430 19 -23 60 -53 91 -68 108 -53 275
-29 339 50 l25 31 -3 -91 c-6 -144 -57 -214 -157 -214 -49 0 -119 29 -134 55
-6 12 -30 15 -112 15 -121 0 -124 -3 -80 -89 56 -111 161 -165 320 -164 143 1
249 51 313 149 61 91 62 102 62 601 l0 453 -104 0 -105 0 -3 -272 c-3 -248 -5
-276 -22 -305 -27 -44 -83 -73 -142 -73 -58 0 -89 15 -118 53 -19 26 -21 45
-26 251 -5 217 -6 223 -30 259 -29 43 -105 87 -149 87 l-31 0 0 -298z"/>
<path d="M122 1083 l3 -338 108 -3 107 -3 0 279 0 280 -30 12 c-16 7 -62 34
-102 61 -40 27 -76 49 -81 49 -4 0 -6 -152 -5 -337z"/>
<path d="M1346 1395 c-16 -13 -60 -41 -97 -62 l-69 -38 0 -277 0 -278 105 0
105 0 0 340 c0 187 -3 340 -7 340 -5 -1 -21 -11 -37 -25z"/>
<path d="M1060 1368 c-42 -17 -202 -48 -251 -48 -41 0 -49 -4 -76 -37 -16 -21
-96 -114 -177 -207 l-146 -169 0 -83 0 -84 350 0 350 0 0 90 0 90 -209 2 -209
3 199 223 c109 122 199 225 199 227 0 6 1 6 -30 -7z"/>
<path d="M1243 590 c-62 -37 -81 -116 -43 -178 25 -41 73 -62 140 -62 l50 0 0
35 0 35 -59 0 c-51 0 -62 3 -75 22 -22 32 -20 55 9 83 19 20 34 25 75 25 49 0
50 1 50 30 0 30 0 30 -57 30 -40 0 -68 -6 -90 -20z"/>
<path d="M1439 606 c-3 -4 -4 -18 -1 -31 4 -22 9 -25 51 -25 43 0 71 -12 71
-32 0 -4 -22 -8 -49 -8 -64 0 -95 -24 -95 -74 0 -55 29 -79 104 -84 l60 -4 0
36 0 36 -50 0 c-38 0 -50 4 -50 15 0 11 13 15 53 15 l53 0 18 -50 c16 -44 21
-50 47 -50 17 0 29 5 29 13 0 28 -70 202 -89 221 -15 15 -37 21 -83 24 -35 2
-66 1 -69 -2z"/>
<path d="M1739 581 c-28 -29 -29 -32 -29 -130 l0 -101 30 0 29 0 3 91 c2 75 6
94 21 103 12 8 22 8 35 0 14 -9 18 -28 20 -103 l3 -91 29 0 30 0 0 74 c0 94
11 126 44 126 36 0 46 -27 46 -119 l0 -81 30 0 30 0 0 90 c0 97 -14 141 -49
160 -27 14 -94 13 -109 -2 -10 -10 -17 -10 -32 0 -11 6 -38 12 -61 12 -32 0
-47 -6 -70 -29z"/>
<path d="M2139 587 c-66 -45 -76 -139 -18 -196 32 -33 82 -45 159 -39 43 3 45
5 45 33 0 30 -1 30 -60 33 -87 3 -101 8 -115 41 -21 51 16 91 84 91 29 0 36
-4 36 -20 0 -17 -7 -20 -45 -20 -43 0 -45 -1 -45 -30 0 -30 1 -30 55 -30 69 0
95 22 95 78 0 57 -31 82 -102 82 -41 0 -64 -6 -89 -23z"/>
<path d="M2463 600 c-12 -5 -29 -20 -38 -33 -14 -22 -75 -191 -75 -209 0 -4
13 -8 29 -8 32 0 30 -2 67 104 28 82 39 96 70 96 20 0 24 5 24 30 0 26 -3 30
-27 29 -16 0 -38 -4 -50 -9z"/>
<path d="M2604 591 c-59 -36 -77 -127 -36 -189 47 -72 178 -68 217 8 33 64 11
156 -45 185 -40 20 -99 19 -136 -4z m116 -61 c40 -40 12 -120 -43 -120 -41 0
-67 27 -67 70 0 29 6 43 22 54 31 22 64 20 88 -4z"/>
<path d="M2830 525 c0 -98 14 -136 60 -160 50 -26 97 -20 135 18 37 37 49 85
43 172 -3 48 -4 50 -33 50 l-30 0 -3 -80 c-3 -86 -18 -115 -57 -115 -41 0 -55
29 -55 118 l0 82 -30 0 -30 0 0 -85z"/>
<path d="M3142 594 c-39 -27 -52 -67 -52 -159 l0 -85 30 0 30 0 0 78 c0 86 16
122 53 122 49 0 67 -36 67 -129 l0 -71 30 0 30 0 0 75 c0 89 -20 144 -59 168
-36 21 -99 22 -129 1z"/>
</g>
</svg>
